<?xml version="1.0" encoding="utf-8"?>
<!-- Generator: Adobe Illustrator 24.0.0, SVG Export Plug-In . SVG Version: 6.00 Build 0)  -->
<svg version="1.1" id="Capa_1" xmlns="http://www.w3.org/2000/svg" xmlns:xlink="http://www.w3.org/1999/xlink" x="0px" y="0px"
	 viewBox="0 0 512 512" style="enable-background:new 0 0 512 512;" xml:space="preserve">
<style type="text/css">
	.st0{fill:#FDCB02;}
	.st1{fill:#FDAE02;}
	.st2{fill:#FD8C02;}
	.st3{fill:#FFDF8E;}
	.st4{fill:#FFD664;}
</style>
<g>
	<g>
		<g>
			<path class="st0" d="M241,0.4c-58,3.3-112.4,26-155.7,64.8C81.8,68.4,88.3,81.6,85,85c-3.7,3.7-17.4-2.4-20.8,1.5
				C26,129.6,3.7,183.5,0.4,241c-0.3,5,9.6,10,9.6,15c0,5-9.9,10-9.6,15c3.3,57.8,25.7,111.9,64.2,155.1c3.3,3.7,13.5,8.4,13.5,8.4
				s4,9.5,7.7,12.8c43.2,38.5,97.3,60.9,155.1,64.2c5,0.3,15-5.8,15-5.8l10-240.1L256.2,4.6C256.2,4.6,246,0.1,241,0.4L241,0.4z"/>
			<path class="st1" d="M256,9.8v439.9c0,0,10,62.1,15,61.8c58-3.3,112.3-25.9,155.6-64.7c3.6-3.2-3-16.5,0.4-19.9
				c3.7-3.7,17.3,2.5,20.7-1.4c38.2-43.1,60.5-97.1,63.8-154.6c0.3-5-19.6-10-19.6-15s19.9-10,19.6-15
				c-3.3-57.8-25.7-111.9-64.2-155.1c-3.3-3.7-15.1-6.4-15.1-6.4s-2.4-11.5-6.1-14.8C382.9,26.2,328.8,3.8,271,0.4
				C266.6,0.2,256,9.8,256,9.8z"/>
		</g>
		<path class="st1" d="M145.9,124.7L85.3,65.2c-3.5,3.1-6.9,6.4-10.3,9.7c-3.7,3.7-7.3,7.6-10.8,11.5l60.6,59.4L145.9,124.7z"/>
		<g>
			<path class="st1" d="M241,426.7v84.9c5,0.3,10,0.4,15,0.4h0l10-33.7l-10-51.6L241,426.7z"/>
			<path class="st2" d="M271,426.7h-15V512c5,0,10-0.2,15-0.4V426.7z"/>
		</g>
		<g>
			<path class="st1" d="M241,0.4v84.9h15L266,37L256,0C256,0,246,0.2,241,0.4z"/>
			<path class="st2" d="M271,0.4C266,0.2,261,0,256,0v85.3h15V0.4z"/>
		</g>
		<path class="st2" d="M366.1,387.3l60.5,59.6c3.6-3.2,7-6.5,10.5-9.9c3.7-3.7,7.3-7.5,10.7-11.4l-60.4-59.6L366.1,387.3z"/>
		<path class="st2" d="M426.7,271h84.9c0.3-5,0.4-10,0.4-15s-0.2-10-0.4-15h-84.9V271z"/>
		<path class="st1" d="M85.3,241H0.4C0.2,246,0,251,0,256s0.2,10,0.4,15h84.9V241z"/>
		<path class="st2" d="M387.3,145.9l60-60c-3.3-3.7-6.7-7.4-10.3-10.9c-3.6-3.6-7.2-7-10.9-10.3l-60,60L387.3,145.9z"/>
		<path class="st1" d="M124.7,366.1l-60,60c3.3,3.7,6.7,7.4,10.3,10.9c3.6,3.6,7.2,7,10.9,10.3l60-60L124.7,366.1z"/>
		<g>
			<path class="st3" d="M256,70.3C153.6,70.3,70.3,153.6,70.3,256S153.6,441.7,256,441.7h0l10-177L256,70.3L256,70.3z"/>
			<path class="st4" d="M441.7,256c0-102.4-83.3-185.7-185.7-185.7v371.3C358.4,441.7,441.7,358.4,441.7,256z"/>
		</g>
	</g>
</g>
<g>
	<g id="Duck_toy_3_">
		<g>
			<g>
				<path class="st2" d="M169.5,213.3h-5.2c-21,0-38-17-38-38c0-4.2,3.4-7.6,7.6-7.6h30.9c2.2,0,4.3,1,5.7,2.6
					c1.4,1.7,2.1,3.9,1.8,6.1c-0.3,2.1-0.5,4.3-0.5,6.5c0,6.8,1.5,13.4,4.4,19.5c1.1,2.4,1,5.1-0.4,7.3
					C174.5,212,172.1,213.3,169.5,213.3z"/>
			</g>
		</g>
		<g>
			<g>
				<g>
					<g>
						<path class="st0" d="M385.7,269.9c-0.1-29.7-11.9-52.2-27.5-52.2c-7.2,0-14.9,4.3-24.7,9.6c-12,6.6-26.9,14.8-42,14.8
							c-15.3,0-28.1-7.7-33.4-14.1c12.8-11.5,20.3-27.9,20.3-45.2c0-0.5,0-1,0-1.6c-0.5-18.3-9-34.6-22.3-45.4
							c-10.5-8.6-23.9-13.8-38.5-13.8c-14.7,0-28.9,5.3-40,15c-11,9.6-18.1,22.8-20.2,37.1c-0.4,2.8-0.6,5.8-0.6,8.7
							c0,9.1,2,17.9,5.9,26.1c1.8,3.9,4.1,7.5,6.7,10.9c-11.8,10.1-20.2,22.8-25.1,37.8c-3,9.2-4.5,18.9-4.5,29v0.2
							c0,23,9.1,44.2,26.3,61.3c9.1,9,38.9,34.8,89.9,33.2c22.4-0.6,42.4-4.3,59.6-10.9c16.6-6.4,30.7-15.6,41.8-27.4
							C382.2,316.9,385.7,286,385.7,269.9L385.7,269.9z"/>
					</g>
				</g>
			</g>
		</g>
		<g>
			<circle class="st2" cx="194.7" cy="175.3" r="7.6"/>
		</g>
		<g>
			<g>
				<g>
					<g>
						<path class="st1" d="M301.9,307.8l-6.6-3.3l6.6-3.3c1.8-0.9,3.2-2.5,3.8-4.5c0.6-2,0.4-4.1-0.5-5.9
							c-7.8-14.7-27-24.2-49.2-24.3h-0.5c-13.7,0-26.6,3.6-36.5,10.2c-10.8,7.2-16.7,17.1-16.7,27.8c0,10.7,5.9,20.6,16.7,27.8
							c9.8,6.6,22.8,10.2,36.5,10.2h0.5c22.2-0.1,41.5-9.7,49.2-24.3c1-1.8,1.1-3.9,0.5-5.9C305.1,310.3,303.7,308.7,301.9,307.8z"
							/>
					</g>
				</g>
			</g>
		</g>
	</g>
	<g id="Duck_toy_2_">
		<g>
			<g>
				<path class="st1" d="M357.4,343.1c-11.1,11.7-25.2,21-41.8,27.4c-17.2,6.6-37.2,10.3-59.6,10.9V135.9
					c13.2,10.8,21.8,27.2,22.3,45.4c0,0.5,0,1.1,0,1.6c0,17.3-7.5,33.7-20.3,45.2c5.4,6.3,18.2,14.1,33.4,14.1
					c15.1,0,30-8.2,42-14.8c9.8-5.4,17.5-9.6,24.7-9.6c15.5,0,27.4,22.4,27.5,52.2C385.7,286,382.2,316.9,357.4,343.1L357.4,343.1z"
					/>
			</g>
		</g>
	</g>
	<path class="st2" d="M305.8,312.3c0.6,1.9,0.4,4.1-0.5,5.9c-7.8,14.7-27,24.2-49.2,24.3v-76c22.2,0.1,41.5,9.7,49.2,24.3
		c1,1.8,1.1,3.9,0.5,5.9c-0.6,1.9-2,3.6-3.8,4.5l-6.6,3.3l6.6,3.3C303.7,308.7,305.1,310.3,305.8,312.3L305.8,312.3z"/>
</g>
</svg>
