<?xml version="1.0" encoding="utf-8"?>
<!-- Generator: Adobe Illustrator 24.0.0, SVG Export Plug-In . SVG Version: 6.00 Build 0)  -->
<svg version="1.1" id="Capa_1" xmlns="http://www.w3.org/2000/svg" xmlns:xlink="http://www.w3.org/1999/xlink" x="0px" y="0px"
	 viewBox="0 0 512 512" style="enable-background:new 0 0 512 512;" xml:space="preserve">
<style type="text/css">
	.st0{fill:#FFDF8E;}
	.st1{fill:#FFD664;}
	.st2{fill:#FDAE02;}
	.st3{fill:#FD8C02;}
	.st4{fill:#FDCB02;}
</style>
<g>
	<g>
		<path class="st0" d="M256,0c-79.1,0-143.2,64.1-143.2,143.2v29.4l-9.7,75.9c-11.8,92.2,60,173.7,152.9,173.7l20-227.8L256,0z"/>
		<path class="st1" d="M408.9,248.5l-9.7-75.9v-29.4C399.2,64.1,335.1,0,256,0v422.2C348.9,422.2,420.7,340.7,408.9,248.5z"/>
	</g>
	<path class="st2" d="M186.6,126.5h30v30h-30V126.5z"/>
	<path class="st3" d="M295.4,126.5h30v30h-30V126.5z"/>
	<g>
		<path class="st2" d="M197.8,267.2v10.9l10,21.2l-13.6,17.6l-25.5,125.3c-7.3,36.1,20.2,69.8,57,69.8H256l20-119.7L256,209
			C223.9,209,197.8,235,197.8,267.2L197.8,267.2z"/>
		<path class="st3" d="M343.3,442.2l-25.5-125.3l-13.6-17.6l10-21.2v-10.9c0-32.1-26-58.2-58.2-58.2v303h30.3
			C323.1,512,350.6,478.3,343.3,442.2L343.3,442.2z"/>
	</g>
	<path class="st4" d="M214,336.7l21.2-21.2l-37.4-37.4v21.2l-3.6,17.6L214,336.7z"/>
	<path class="st2" d="M276.8,315.5l21.2,21.2l19.7-19.7l-3.6-17.6v-21.2L276.8,315.5z"/>
</g>
</svg>
